<?xml version="1.0" encoding="utf-8"?>
<!-- Generator: Adobe Illustrator 19.2.0, SVG Export Plug-In . SVG Version: 6.00 Build 0)  -->
<svg version="1.1" id="Layer_1" xmlns="http://www.w3.org/2000/svg" xmlns:xlink="http://www.w3.org/1999/xlink" x="0px" y="0px"
   viewBox="0 0 300 300" style="enable-background:new 0 0 300 300;" xml:space="preserve">
<g id="Letters">
  <g>
    <path d="M208.2,64.2l-5.1-2.2l-5.1-2.5l5.1-3.7l5.1-3.8l0,6.2L208.2,64.2z M203.1,55.7l5-3.8l-5-2.2l-5-2.4l0,6.2l0,6L203.1,55.7z
       M203.4,247.1l-5.3,2.5l5.3,3.4l5,3.2v-5.7l-0.1-5.7L203.4,247.1z M203.2,252.9l-5.2-3.3v5.7v5.6l5.2-2.4l5.2-2.4L203.2,252.9z
       M139.6,260.9l6.9,0v-8v-8l-6.9,8l-6.9,8L139.6,260.9z M163.2,161.5l45-97.3l-15.1-7l-45,97.3L163.2,161.5z M208.3,244.9
      L163,147.6l-15,6.9l45.3,97.3L208.3,244.9z M151.7,146.3h-37.5v16.5h37.5V146.3z M106.2,252.9l8-8h-8h-8l0,8l0,8L106.2,252.9z
       M98.2,48.1v16.1h8h8l0,0l-8-7.9L98.2,48.1z M114.2,64.2h-16v180.7h16V64.2z M198.1,244.9h-51.5v16h51.5V244.9z M146.6,63.3
      L146.6,63.3v-8v-8h-6.9h-6.9L146.6,63.3z M198.1,47.3h-51.5v16h51.5V47.3z"/>
  </g>
</g>
</svg>
