<svg xmlns="http://www.w3.org/2000/svg" viewBox="0 0 300 300"><path fill="795548" d="M208.2 64.2l-5.1-2.2-5.1-2.5 5.1-3.7 5.1-3.8v12.2zm-5.1-8.5l5-3.8-5-2.2-5-2.4v12.2l5-3.8zm.3 191.4l-5.3 2.5 5.3 3.4 5 3.2v-5.7l-.1-5.7-4.9 2.3zm-.2 5.8l-5.2-3.3v11.3l5.2-2.4 5.2-2.4-5.2-3.2zm-63.6 8h6.9v-16l-6.9 8-6.9 8h6.9zm23.6-99.4l45-97.3-15.1-7-45 97.3 15.1 7zm45.1 83.4L163 147.6l-15 6.9 45.3 97.3 15-6.9zm-56.6-98.6h-37.5v16.5h37.5v-16.5zm-45.5 106.6l8-8h-16v16l8-8zm-8-204.8v16.1h16l-8-7.9-8-8.2zm16 16.1h-16v180.7h16V64.2zm83.9 180.7h-51.5v16h51.5v-16zM146.6 63.3v-16h-13.8l13.8 16zm51.5-16h-51.5v16h51.5v-16z"/></svg>