<svg xmlns="http://www.w3.org/2000/svg" viewBox="0 0 275 275">
    <defs>
        <style>
            .cls-1{fill:url(#linear-gradient)}.cls-2{fill:#fdf5e6}
        </style>
        <linearGradient id="linear-gradient" x1="-24.66" y1="231.3" x2="300.66" y2="43.48" gradientUnits="userSpaceOnUse">
            <stop offset=".25" stop-color="#3aa9a8" stop-opacity=".63"/>
            <stop offset=".32" stop-color="#488f8c" stop-opacity=".61"/>
            <stop offset=".52" stop-color="#733e36" stop-opacity=".55"/>
            <stop offset=".63" stop-color="#5b3e59" stop-opacity=".53"/>
            <stop offset=".78" stop-color="#433d7c" stop-opacity=".5"/>
        </linearGradient>
    </defs>
    <title>
        Logo(white)
    </title>
    <path class="cls-1" d="M0 0h275v275H0z"/>
    <path class="cls-2" d="M199.78 227.76l-4.88 2.26-5.32 2.49-.02-.01 10.22-4.74-41.95-90.2 41.86-90.49-.08-5.98.04-6.23-5.05-2.24-5.04-2.43h-65.33l13.83 16h43.66l-38.48 83.18v-.22h-37.51v-82.1h-.02l-7.98-7.88-8.01-8.18v196.8l.03 8.04.02 8.04 7.98-8.04 7.98-8.04v-82.16h37.51v-.26l38.33 82.42h-43.51l-6.92 8-6.91 8h65.33l5.15-2.36 5.15-2.35v-5.66l-.08-5.66z" id="Letters"/>
</svg>
