<svg id="Layer_1" data-name="Layer 1" xmlns="http://www.w3.org/2000/svg" viewBox="0 0 62.62 58.04"><defs><style>.cls-1{fill:#774a0a}</style></defs><title>rotate1</title><path class="cls-1" d="M0 0zm71.54 48.15h-32V20.74A4.77 4.77 0 0 0 34.8 16H18.46a4.77 4.77 0 0 0-4.77 4.76v42.77a4.77 4.77 0 0 0 4.77 4.77H24v1a4.77 4.77 0 0 0 4.76 4.7h42.78a4.77 4.77 0 0 0 4.77-4.76V52.91a4.77 4.77 0 0 0-4.77-4.76zM18.45 16.93H34.8a3.81 3.81 0 0 1 3.81 3.81v27.4h-1.36v-25.5a.48.48 0 0 0-.48-.48H16.48a.48.48 0 0 0-.48.48v36.58a.48.48 0 0 0 .48.48H24v7.64h-5.55a3.81 3.81 0 0 1-3.81-3.81V20.74a3.81 3.81 0 0 1 3.81-3.81zM17 23.12h19.29v25h-7.53a4.77 4.77 0 0 0-4.76 4.8v5.83h-7V23.12zm54.54 49.94H28.76a3.81 3.81 0 0 1-3.81-3.81V52.91a3.82 3.82 0 0 1 3.81-3.81h42.78a3.81 3.81 0 0 1 3.81 3.81v16.35a3.81 3.81 0 0 1-3.81 3.8z" transform="translate(-13.69 -15.98)"/><path class="cls-1" d="M28.92 58.42a2.66 2.66 0 1 0 2.66 2.66 2.66 2.66 0 0 0-2.66-2.66zm0 4.36a1.7 1.7 0 1 1 1.7-1.7 1.7 1.7 0 0 1-1.7 1.71zm40.73-12.32H33.07a.48.48 0 0 0-.48.48v20.29a.48.48 0 0 0 .48.48h36.58a.48.48 0 0 0 .48-.48V50.94a.48.48 0 0 0-.48-.48zm-.48 1v19.29H33.55V51.42h35.62zM45.2 30.3a12.66 12.66 0 0 1 12.55 12l-3-2.64a.5.5 0 0 0-.67 0 .48.48 0 0 0 0 .68L58 43.73a.48.48 0 0 0 .31.12.47.47 0 0 0 .36-.17L62 39.81a.48.48 0 0 0 0-.67.49.49 0 0 0-.68 0l-2.59 3a13.54 13.54 0 0 0-13.53-12.8.48.48 0 1 0 0 .96z" transform="translate(-13.69 -15.98)"/></svg>