<?xml version="1.0" encoding="UTF-8"?>
<svg width="1236px" height="620px" viewBox="0 0 1236 620" version="1.1" xmlns="http://www.w3.org/2000/svg" xmlns:xlink="http://www.w3.org/1999/xlink">
    <!-- Generator: Sketch 41.2 (35397) - http://www.bohemiancoding.com/sketch -->
    <title>Sad family</title>
    <desc>Created with Sketch.</desc>
    <defs></defs>
    <g id="Page-1" stroke="none" stroke-width="1" fill="none" fill-rule="evenodd">
        <g id="sad-iPhone" transform="translate(1096.000000, 380.000000)" fill="#795548">
            <rect id="Rectangle-11" x="0" y="10" width="10" height="220"></rect>
            <rect id="Rectangle-11-Copy" x="130" y="10" width="10" height="220"></rect>
            <rect id="Rectangle-12" x="10" y="230" width="120" height="10"></rect>
            <rect id="Rectangle-12-Copy" x="10" y="0" width="120" height="10"></rect>
            <rect id="Rectangle-12-Copy-6" x="20" y="20" width="100" height="10"></rect>
            <rect id="Rectangle-12-Copy-7" x="20" y="190" width="100" height="10"></rect>
            <rect id="Rectangle-12-Copy-2" x="60" y="110" width="10" height="10"></rect>
            <rect id="Rectangle-12-Copy-3" x="60" y="140" width="20" height="10"></rect>
            <rect id="Rectangle-12-Copy-4" x="50" y="150" width="10" height="10"></rect>
            <rect id="Rectangle-12-Copy-8" x="65" y="210" width="10" height="10"></rect>
            <rect id="Rectangle-12-Copy-5" x="80" y="150" width="10" height="10"></rect>
            <rect id="Rectangle-13" x="20" y="30" width="10" height="160"></rect>
            <rect id="Rectangle-13-Copy" x="110" y="30" width="10" height="160"></rect>
            <rect id="Rectangle-15-Copy" x="40" y="65" width="10" height="25"></rect>
            <rect id="Rectangle-15-Copy-3" x="90" y="65" width="10" height="25"></rect>
            <rect id="Rectangle-15-Copy-2" x="70" y="90" width="10" height="30"></rect>
        </g>
        <g id="sad-Mac" fill="#795548">
            <rect id="Rectangle" x="0" y="40" width="20" height="460"></rect>
            <rect id="Rectangle-Copy" x="460" y="40" width="20" height="460"></rect>
            <rect id="Rectangle-Copy-2" x="400" y="80" width="20" height="260"></rect>
            <rect id="Rectangle-Copy-4" x="440" y="520" width="20" height="80"></rect>
            <rect id="Rectangle-Copy-5" x="20" y="520" width="20" height="80"></rect>
            <rect id="Rectangle-Copy-3" x="60" y="80" width="20" height="260"></rect>
            <rect id="Rectangle-2" x="20" y="20" width="20" height="20"></rect>
            <rect id="Rectangle-2-Copy" x="440" y="20" width="20" height="20"></rect>
            <rect id="Rectangle-3" x="40" y="0" width="400" height="20"></rect>
            <rect id="Rectangle-3-Copy-3" x="20" y="500" width="440" height="20"></rect>
            <rect id="Rectangle-3-Copy-4" x="20" y="600" width="440" height="20"></rect>
            <rect id="Rectangle-3-Copy" x="80" y="60" width="320" height="20"></rect>
            <rect id="Rectangle-3-Copy-2" x="80" y="340" width="320" height="20"></rect>
            <rect id="Rectangle-3-Copy-5" x="180" y="260" width="120" height="20"></rect>
            <rect id="Rectangle-3-Copy-7" x="280" y="420" width="120" height="20"></rect>
            <rect id="Rectangle-3-Copy-6" x="60" y="420" width="40" height="20"></rect>
            <rect id="Rectangle-4" x="160" y="280" width="20" height="20"></rect>
            <rect id="Rectangle-5" x="300" y="280" width="20" height="20"></rect>
            <rect id="Rectangle-6" x="140" y="120" width="20" height="40"></rect>
            <rect id="Rectangle-7" x="320" y="120" width="20" height="40"></rect>
            <rect id="Rectangle-8" x="240" y="120" width="20" height="100"></rect>
            <rect id="Rectangle-9" x="220" y="200" width="20" height="20"></rect>
        </g>
        <g id="sad-iPad" transform="translate(554.000000, 40.000000)" fill="#795548">
            <rect id="Rectangle-Copy-6" x="0" y="40" width="20" height="500"></rect>
            <rect id="Rectangle-Copy-7" x="460" y="40" width="20" height="500"></rect>
            <rect id="Rectangle-Copy-8" x="400" y="80" width="20" height="380"></rect>
            <rect id="Rectangle-Copy-9" x="60" y="80" width="20" height="380"></rect>
            <rect id="Rectangle-2-Copy-2" x="20" y="20" width="20" height="20"></rect>
            <rect id="Rectangle-2-Copy-4" x="20" y="540" width="20" height="20"></rect>
            <rect id="Rectangle-2-Copy-6" x="440" y="540" width="20" height="20"></rect>
            <rect id="Rectangle-2-Copy-3" x="440" y="20" width="20" height="20"></rect>
            <rect id="Rectangle-2-Copy-5" transform="translate(438.000000, 570.000000) scale(-1, 1) translate(-438.000000, -570.000000) " x="436" y="560" width="4" height="20"></rect>
            <rect id="Rectangle-3-Copy-8" x="40" y="0" width="400" height="20"></rect>
            <rect id="Rectangle-3-Copy-12" x="40" y="560" width="400" height="20"></rect>
            <rect id="Rectangle-3-Copy-9" x="80" y="60" width="320" height="20"></rect>
            <rect id="Rectangle-3-Copy-10" x="80" y="460" width="320" height="20"></rect>
            <rect id="Rectangle-3-Copy-11" x="200" y="320" width="80" height="20"></rect>
            <rect id="Rectangle-4-Copy" x="180" y="340" width="20" height="20"></rect>
            <rect id="Rectangle-5-Copy" x="280" y="340" width="20" height="20"></rect>
            <rect id="Rectangle-6-Copy" x="140" y="180" width="20" height="40"></rect>
            <rect id="Rectangle-7-Copy" x="320" y="180" width="20" height="40"></rect>
            <rect id="Rectangle-8-Copy" x="240" y="180" width="20" height="100"></rect>
            <rect id="Rectangle-9-Copy" x="220" y="260" width="20" height="20"></rect>
            <rect id="Rectangle-10" x="220" y="500" width="40" height="40"></rect>
        </g>
    </g>
</svg>