<svg xmlns="http://www.w3.org/2000/svg" xmlns:xlink="http://www.w3.org/1999/xlink" viewBox="0 0 275 275"><defs><style>.cls-1{fill:url(#linear-gradient);}.cls-2{fill:#fdf5e6;}</style><linearGradient id="linear-gradient" x1="-24.66" y1="231.3" x2="300.66" y2="43.48" gradientUnits="userSpaceOnUse"><stop offset="0.25" stop-color="#3aa9a8" stop-opacity="0.63"/><stop offset="0.32" stop-color="#488f8c" stop-opacity="0.61"/><stop offset="0.52" stop-color="#733e36" stop-opacity="0.55"/><stop offset="0.63" stop-color="#5b3e59" stop-opacity="0.53"/><stop offset="0.78" stop-color="#433d7c" stop-opacity="0.5"/></linearGradient></defs><title>Logo(white)</title><rect class="cls-1" width="275" height="275"/><g id="Letters"><polygon class="cls-2" points="199.78 227.76 194.9 230.02 189.58 232.51 189.56 232.5 189.56 232.5 199.78 227.76 157.83 137.56 199.69 47.07 199.61 41.09 199.65 34.86 194.6 32.62 189.56 30.19 189.56 30.19 138.06 30.19 131.14 30.19 124.23 30.19 138.06 46.19 138.06 46.19 181.72 46.19 143.24 129.37 143.24 129.15 105.73 129.15 105.73 47.05 105.71 47.05 97.73 39.17 89.72 30.99 89.72 47.05 89.72 47.07 89.72 227.79 89.75 235.83 89.77 243.87 97.75 235.83 105.73 227.79 105.73 145.63 143.24 145.63 143.24 145.37 181.57 227.79 138.06 227.79 131.14 235.79 124.23 243.79 131.14 243.79 138.06 243.79 138.06 243.79 189.56 243.79 194.71 241.43 199.86 239.08 199.86 233.42 199.78 227.76"/></g></svg>